<svg width="61" height="61" viewBox="0 0 61 61" fill="none" xmlns="http://www.w3.org/2000/svg">
<path d="M48.2063 26.5355C48.069 26.3704 47.8968 26.2381 47.7021 26.1481C47.5073 26.0581 47.295 26.0127 47.0806 26.0152H36.9781V23.1246H41.3077C41.6276 23.1211 41.9372 23.0114 42.188 22.8126C42.4387 22.6137 42.6165 22.3371 42.6932 22.0262L45.5796 10.4639C45.6319 10.2522 45.6357 10.0315 45.5907 9.8182C45.5457 9.6049 45.4531 9.40455 45.3198 9.23216C45.1865 9.05977 45.016 8.91981 44.8211 8.82276C44.6262 8.7257 44.4118 8.67407 44.1941 8.67172H31.2052V2.89057H32.6485C33.0312 2.89057 33.3983 2.7383 33.669 2.46726C33.9396 2.19622 34.0917 1.8286 34.0917 1.44529C34.0917 1.06197 33.9396 0.694359 33.669 0.423315C33.3983 0.152271 33.0312 0 32.6485 0H26.8756C26.4929 0 26.1258 0.152271 25.8551 0.423315C25.5845 0.694359 25.4324 1.06197 25.4324 1.44529C25.4324 1.8286 25.5845 2.19622 25.8551 2.46726C26.1258 2.7383 26.4929 2.89057 26.8756 2.89057H28.3188V8.67172H15.3299C15.1122 8.67407 14.8979 8.7257 14.703 8.82276C14.508 8.91981 14.3375 9.05977 14.2043 9.23216C14.071 9.40455 13.9784 9.6049 13.9334 9.8182C13.8884 10.0315 13.8922 10.2522 13.9444 10.4639L16.8309 22.0262C16.9076 22.3371 17.0853 22.6137 17.3361 22.8126C17.5869 23.0114 17.8965 23.1211 18.2163 23.1246H22.546V26.0152H12.4435C12.2295 26.0151 12.0181 26.0628 11.8247 26.1546C11.6313 26.2465 11.4608 26.3802 11.3254 26.5463C11.19 26.7123 11.0932 26.9064 11.042 27.1145C10.9907 27.3226 10.9864 27.5395 11.0292 27.7495L14.4929 45.093C14.5594 45.4194 14.7365 45.7128 14.9943 45.9235C15.252 46.1342 15.5745 46.2493 15.9072 46.2492H22.546V59.2568C22.546 59.6401 22.698 60.0077 22.9687 60.2788C23.2393 60.5498 23.6064 60.7021 23.9892 60.7021H35.5349C35.9176 60.7021 36.2847 60.5498 36.5554 60.2788C36.826 60.0077 36.9781 59.6401 36.9781 59.2568V46.2492H43.6169C43.9496 46.2493 44.2721 46.1342 44.5298 45.9235C44.7875 45.7128 44.9647 45.4194 45.0312 45.093L48.4949 27.7495C48.5404 27.5384 48.5381 27.3198 48.4882 27.1097C48.4382 26.8996 48.3419 26.7034 48.2063 26.5355ZM42.4334 11.5623L41.683 14.4529H41.3943H18.2163H17.9277L17.1772 11.5623H42.4334ZM18.707 17.3434H40.9902L40.2686 20.234H19.3421L18.707 17.3434ZM25.519 23.1246H34.1783V26.0152H25.519V23.1246ZM45.4064 28.9057L44.8003 31.7963C44.6285 31.7648 44.4525 31.7648 44.2807 31.7963H15.3299C15.1582 31.7648 14.9821 31.7648 14.8104 31.7963L14.2042 28.9057H45.4064ZM15.3299 34.6869H44.1941L43.6169 37.5775H15.9361L15.3299 34.6869ZM34.0628 57.8115H31.1764V50.5851C31.1764 50.2017 31.0243 49.8341 30.7537 49.5631C30.483 49.292 30.1159 49.1398 29.7332 49.1398C29.3504 49.1398 28.9833 49.292 28.7127 49.5631C28.442 49.8341 28.29 50.2017 28.29 50.5851V57.8115H25.4035V46.2492H34.0628V57.8115ZM17.0618 43.3586L16.4845 40.468H42.9818L42.4046 43.3586H17.0618Z" fill="#FA0101"/>
</svg>
