<svg width="61" height="61" viewBox="0 0 61 61" fill="none" xmlns="http://www.w3.org/2000/svg">
<path d="M41.5252 46.6498H48.8754C50.227 46.6498 51.3254 45.554 51.3254 44.1998V24.6004C51.3254 23.2457 50.227 22.1504 48.8754 22.1504H47.6498V19.7003H42.7503V22.1504H41.5252C40.1731 22.1504 39.0752 23.2457 39.0752 24.6004V44.1998C39.0752 45.554 40.1731 46.6498 41.5252 46.6498ZM41.5252 24.6004H48.8754V44.1998H41.5252V24.6004ZM26.8249 46.6498H34.1751C35.5267 46.6498 36.6251 45.554 36.6251 44.1998V24.6004C36.6251 23.2457 35.5267 22.1504 34.1751 22.1504H32.9501V19.7003H28.0505V22.1504H26.8254C25.4738 22.1504 24.3754 23.2457 24.3754 24.6004V44.1998C24.3749 45.554 25.4733 46.6498 26.8249 46.6498ZM26.8249 24.6004H34.1751V44.1998H26.8249V24.6004ZM12.1251 46.6498H19.4748C20.8269 46.6498 21.9248 45.554 21.9248 44.1998V24.6004C21.9248 23.2457 20.8269 22.1504 19.4748 22.1504H18.2497V19.7003H13.3502V22.1504H12.1251C10.773 22.1504 9.67508 23.2457 9.67508 24.6004V44.1998C9.67508 45.554 10.773 46.6498 12.1251 46.6498ZM12.1251 24.6004H19.4748V44.1998H12.1251V24.6004ZM52.5499 5H8.45005C7.09589 5 6 6.09589 6 7.45005V54C6 55.3542 7.09589 56.45 8.45005 56.45H52.5499C53.9041 56.45 55 55.3542 55 54V7.45005C55 6.09589 53.9041 5 52.5499 5ZM52.5499 54H8.45005V51.5494H52.5499V54ZM52.5499 49.1004H8.45005V17.2503H52.5499V49.1004ZM52.5499 14.8002H8.45005V7.45005H52.5499V14.8002ZM10.9001 11.1251C10.9001 10.448 11.448 9.90062 12.1251 9.90062H14.5752C15.2523 9.90062 15.8002 10.448 15.8002 11.1251C15.8002 11.8022 15.2523 12.3502 14.5752 12.3502H12.1251C11.448 12.3502 10.9001 11.8022 10.9001 11.1251ZM45.1998 11.1251C45.1998 10.448 45.7477 9.90062 46.4253 9.90062H48.8754C49.552 9.90062 50.1004 10.448 50.1004 11.1251C50.1004 11.8022 49.5525 12.3502 48.8754 12.3502H46.4253C45.7483 12.3502 45.1998 11.8022 45.1998 11.1251ZM28.0499 11.1251C28.0499 10.448 28.5979 9.90062 29.275 9.90062H31.725C32.4021 9.90062 32.9501 10.448 32.9501 11.1251C32.9501 11.8022 32.4026 12.3502 31.725 12.3502H29.275C28.5979 12.3502 28.0499 11.8022 28.0499 11.1251Z" fill="#FA0101"/>
</svg>
