<svg width="61" height="61" viewBox="0 0 61 61" fill="none" xmlns="http://www.w3.org/2000/svg">
<path d="M23.0278 24.6488V36.0588C23.0278 36.4866 23.1978 36.8969 23.5003 37.1994C23.8028 37.502 24.2131 37.6719 24.6409 37.6719H36.051C36.4788 37.6719 36.8891 37.502 37.1916 37.1994C37.4942 36.8969 37.6641 36.4866 37.6641 36.0588V24.6488C37.6641 24.2209 37.4942 23.8106 37.1916 23.5081C36.8891 23.2056 36.4788 23.0356 36.051 23.0356H24.6409C24.2131 23.0356 23.8028 23.2056 23.5003 23.5081C23.1978 23.8106 23.0278 24.2209 23.0278 24.6488ZM26.254 26.2619H34.4379V34.4457H26.254V26.2619Z" fill="#FA0101"/>
<path d="M31.9607 18.906V13.9108C33.1057 13.5279 34.0773 12.7501 34.7016 11.7166C35.3258 10.6831 35.5621 9.46124 35.3681 8.2695C35.1742 7.07776 34.5626 5.99389 33.6428 5.21169C32.723 4.4295 31.555 4 30.3475 4C29.1401 4 27.9721 4.4295 27.0523 5.21169C26.1325 5.99389 25.5209 7.07776 25.3269 8.2695C25.133 9.46124 25.3692 10.6831 25.9935 11.7166C26.6178 12.7501 27.5893 13.5279 28.7344 13.9108V18.906H31.9607ZM30.3475 7.23251C30.7155 7.23251 31.0752 7.34163 31.3812 7.54606C31.6871 7.75049 31.9256 8.04105 32.0664 8.381C32.2072 8.72095 32.244 9.09503 32.1722 9.45592C32.1005 9.81681 31.9233 10.1483 31.6631 10.4085C31.4029 10.6687 31.0714 10.8459 30.7105 10.9177C30.3496 10.9895 29.9755 10.9526 29.6356 10.8118C29.2956 10.671 29.0051 10.4325 28.8006 10.1266C28.5962 9.82063 28.4871 9.46093 28.4871 9.09297C28.4871 8.84865 28.5352 8.60672 28.6287 8.381C28.7222 8.15528 28.8592 7.95019 29.032 7.77743C29.3809 7.42853 29.8541 7.23251 30.3475 7.23251Z" fill="#FA0101"/>
<path d="M28.7344 41.8013V46.7966C27.5893 47.1795 26.6178 47.9572 25.9935 48.9908C25.3692 50.0243 25.133 51.2461 25.3269 52.4379C25.5209 53.6296 26.1325 54.7135 27.0523 55.4957C27.9721 56.2779 29.1401 56.7074 30.3475 56.7074C31.555 56.7074 32.723 56.2779 33.6428 55.4957C34.5626 54.7135 35.1742 53.6296 35.3681 52.4379C35.5621 51.2461 35.3258 50.0243 34.7016 48.9908C34.0773 47.9572 33.1057 47.1795 31.9607 46.7966V41.8013H28.7344ZM30.3475 53.4749C29.9796 53.4749 29.6199 53.3657 29.3139 53.1613C29.008 52.9569 28.7695 52.6663 28.6287 52.3264C28.4879 51.9864 28.4511 51.6123 28.5228 51.2515C28.5946 50.8906 28.7718 50.5591 29.032 50.2989C29.2922 50.0387 29.6237 49.8615 29.9846 49.7897C30.3455 49.7179 30.7196 49.7548 31.0595 49.8956C31.3995 50.0364 31.69 50.2748 31.8945 50.5808C32.0989 50.8867 32.208 51.2464 32.208 51.6144C32.208 52.1078 32.012 52.581 31.6631 52.9299C31.3142 53.2788 30.841 53.4749 30.3475 53.4749Z" fill="#FA0101"/>
<path d="M39.5865 23.4014L43.1192 19.8687C44.1996 20.4079 45.4367 20.5452 46.609 20.2559C47.7814 19.9667 48.8126 19.2699 49.5183 18.29C50.224 17.3102 50.5581 16.1113 50.4608 14.9077C50.3636 13.7041 49.8413 12.5743 48.9875 11.7205C48.1337 10.8667 47.0039 10.3444 45.8003 10.2472C44.5967 10.1499 43.3978 10.484 42.418 11.1897C41.4381 11.8954 40.7413 12.9266 40.4521 14.099C40.1629 15.2714 40.3001 16.5084 40.8393 17.5888L37.3066 21.1215L39.5865 23.4014ZM44.0709 14.0077C44.331 13.7473 44.6625 13.5698 45.0235 13.4979C45.3844 13.4259 45.7586 13.4626 46.0987 13.6033C46.4388 13.7441 46.7295 13.9825 46.9341 14.2885C47.1386 14.5945 47.2478 14.9543 47.2478 15.3224C47.2478 15.6904 47.1386 16.0502 46.9341 16.3562C46.7295 16.6622 46.4388 16.9007 46.0987 17.0414C45.7586 17.1822 45.3844 17.2189 45.0235 17.1469C44.6625 17.0749 44.331 16.8975 44.0709 16.6371C43.897 16.4646 43.7589 16.2594 43.6647 16.0333C43.5705 15.8072 43.5219 15.5647 43.5219 15.3197C43.5219 15.0747 43.5705 14.8322 43.6647 14.6061C43.7589 14.38 43.897 14.1748 44.0709 14.0023V14.0077Z" fill="#FA0101"/>
<path d="M21.1089 37.3063L17.5815 40.839C16.6284 40.3623 15.5493 40.1977 14.4974 40.3685C13.4454 40.5393 12.4739 41.0369 11.7206 41.7908C11.0571 42.4521 10.5891 43.2838 10.3683 44.1942C10.1474 45.1046 10.1823 46.0583 10.469 46.9501C10.7557 47.842 11.2831 48.6373 11.9931 49.2485C12.703 49.8596 13.568 50.2629 14.4926 50.4137C15.4171 50.5645 16.3654 50.4571 17.2328 50.1033C18.1002 49.7495 18.853 49.163 19.4083 48.4085C19.9636 47.6541 20.2997 46.7609 20.3797 45.8275C20.4596 44.8941 20.2803 43.9568 19.8614 43.1189L23.3941 39.5862L21.1089 37.3063ZM16.6244 46.7054C16.4542 46.8884 16.2488 47.0352 16.0205 47.1371C15.7922 47.2389 15.5458 47.2938 15.2959 47.2983C15.0459 47.3028 14.7977 47.2569 14.5659 47.1633C14.3341 47.0697 14.1235 46.9304 13.9468 46.7536C13.77 46.5769 13.6307 46.3663 13.5372 46.1346C13.4436 45.9028 13.3977 45.6545 13.4022 45.4046C13.4067 45.1547 13.4615 44.9082 13.5634 44.6799C13.6652 44.4517 13.8121 44.2463 13.9951 44.076C14.3478 43.7478 14.8141 43.5693 15.2959 43.578C15.7776 43.5866 16.2372 43.7819 16.5779 44.1226C16.9186 44.4633 17.1138 44.9228 17.1225 45.4046C17.1312 45.8863 16.9526 46.3526 16.6244 46.7054Z" fill="#FA0101"/>
<path d="M48.9777 41.7908C48.2239 41.0358 47.2514 40.5375 46.1984 40.3666C45.1453 40.1958 44.0651 40.3611 43.1113 40.839L39.5786 37.3063L37.2988 39.5862L40.8315 43.1189C40.3572 44.0726 40.1939 45.1511 40.3646 46.2025C40.5354 47.2538 41.0315 48.2252 41.7832 48.9799C42.7438 49.8984 44.0257 50.4045 45.3546 50.3899C46.6836 50.3752 47.954 49.8411 48.8942 48.9017C49.8343 47.9622 50.3694 46.6922 50.385 45.3632C50.4006 44.0343 49.8955 42.752 48.9777 41.7908ZM46.6978 46.7C46.3451 47.0282 45.8787 47.2067 45.397 47.1981C44.9153 47.1894 44.4557 46.9941 44.115 46.6534C43.7743 46.3128 43.5791 45.8532 43.5704 45.3714C43.5617 44.8897 43.7403 44.4234 44.0684 44.0706C44.4226 43.7324 44.8934 43.5437 45.3831 43.5437C45.8728 43.5437 46.3437 43.7324 46.6978 44.0706C46.8711 44.2435 47.0086 44.4488 47.1024 44.6748C47.1963 44.9009 47.2446 45.1433 47.2446 45.388C47.2446 45.6328 47.1963 45.8751 47.1024 46.1012C47.0086 46.3272 46.8711 46.5326 46.6978 46.7054V46.7Z" fill="#FA0101"/>
<path d="M18.9124 11.7224C18.2511 11.0596 17.4196 10.5921 16.5096 10.3716C15.5996 10.1511 14.6464 10.186 13.7549 10.4726C12.8635 10.7591 12.0685 11.2861 11.4574 11.9956C10.8464 12.705 10.443 13.5694 10.2917 14.4935C10.1405 15.4175 10.2472 16.3654 10.6002 17.2326C10.9531 18.0999 11.5386 18.8529 12.2921 19.4087C13.0457 19.9645 13.938 20.3016 14.8708 20.3827C15.8036 20.4639 16.7407 20.2859 17.5789 19.8686L21.1116 23.4013L23.3915 21.1214L19.8642 17.5887C20.3421 16.6349 20.5074 15.5548 20.3366 14.5017C20.1657 13.4486 19.6674 12.4761 18.9124 11.7224ZM14.0032 16.6316C13.675 16.2789 13.4965 15.8125 13.5051 15.3308C13.5138 14.8491 13.7091 14.3895 14.0497 14.0488C14.3904 13.7081 14.85 13.5129 15.3318 13.5042C15.8135 13.4955 16.2798 13.6741 16.6326 14.0022C16.8156 14.1725 16.9624 14.3779 17.0642 14.6062C17.1661 14.8344 17.2209 15.0809 17.2254 15.3308C17.2299 15.5807 17.184 15.829 17.0905 16.0608C16.9969 16.2926 16.8576 16.5031 16.6808 16.6799C16.5041 16.8566 16.2935 16.9959 16.0617 17.0895C15.8299 17.1831 15.5817 17.229 15.3318 17.2245C15.0818 17.22 14.8354 17.1652 14.6071 17.0633C14.3789 16.9614 14.1735 16.8146 14.0032 16.6316Z" fill="#FA0101"/>
<path d="M51.6087 25.267C50.5395 25.2647 49.4967 25.5989 48.6281 26.2223C47.7596 26.8458 47.1092 27.7269 46.7694 28.7406H41.7957V31.9668H46.7909C47.0884 32.8521 47.6242 33.6384 48.3393 34.2391C49.0545 34.8398 49.9214 35.2318 50.8448 35.372C51.7682 35.5122 52.7123 35.3952 53.5736 35.0338C54.4348 34.6724 55.1798 34.0807 55.7267 33.3236C56.2735 32.5664 56.6012 31.6732 56.6735 30.7421C56.7459 29.8109 56.5603 28.8778 56.1369 28.0453C55.7136 27.2127 55.0691 26.513 54.274 26.0228C53.479 25.5327 52.5642 25.2712 51.6302 25.267H51.6087ZM51.6087 32.2142C51.2408 32.2142 50.8811 32.105 50.5751 31.9006C50.2692 31.6962 50.0307 31.4056 49.8899 31.0657C49.7491 30.7257 49.7122 30.3516 49.784 29.9908C49.8558 29.6299 50.033 29.2984 50.2932 29.0382C50.5534 28.778 50.8849 28.6008 51.2458 28.529C51.6067 28.4572 51.9807 28.4941 52.3207 28.6349C52.6606 28.7757 52.9512 29.0141 53.1556 29.3201C53.3601 29.626 53.4692 29.9857 53.4692 30.3537C53.4692 30.8471 53.2732 31.3203 52.9243 31.6692C52.5754 32.0181 52.1022 32.2142 51.6087 32.2142Z" fill="#FA0101"/>
<path d="M4.00002 30.3537C3.99661 31.5622 4.42405 32.7323 5.20561 33.6541C5.98717 34.5759 7.07168 35.1889 8.26448 35.3832C9.45728 35.5775 10.6803 35.3403 11.7139 34.7141C12.7476 34.088 13.5243 33.1139 13.9045 31.9668H18.8998V28.7406H13.9045C13.5243 27.5934 12.7476 26.6194 11.7139 25.9932C10.6803 25.3671 9.45728 25.1299 8.26448 25.3241C7.07168 25.5184 5.98717 26.1315 5.20561 27.0532C4.42405 27.975 3.99661 29.1452 4.00002 30.3537ZM10.9471 30.3537C10.9471 30.7216 10.838 31.0813 10.6336 31.3873C10.4292 31.6932 10.1386 31.9317 9.79865 32.0725C9.4587 32.2133 9.08462 32.2502 8.72373 32.1784C8.36284 32.1066 8.03134 31.9294 7.77115 31.6692C7.51096 31.409 7.33377 31.0775 7.26199 30.7166C7.1902 30.3557 7.22704 29.9817 7.36786 29.6417C7.50867 29.3018 7.74713 29.0112 8.05308 28.8068C8.35903 28.6023 8.71873 28.4932 9.08669 28.4932C9.57918 28.4947 10.051 28.6913 10.3988 29.04C10.7465 29.3888 10.9418 29.8612 10.9418 30.3537H10.9471Z" fill="#FA0101"/>
<path d="M32.6309 28.7407H28.0604V31.9669H32.6309V28.7407Z" fill="#FA0101"/>
</svg>
