<svg width="61" height="61" viewBox="0 0 61 61" fill="none" xmlns="http://www.w3.org/2000/svg">
<path d="M48.5179 7H11.295C10.1559 7 9.06342 7.45354 8.25796 8.26086C7.4525 9.06817 7 10.1631 7 11.3048L7 48.6134C7 49.7551 7.4525 50.85 8.25796 51.6573C9.06342 52.4647 10.1559 52.9182 11.295 52.9182H48.5179C49.657 52.9182 50.7495 52.4647 51.5549 51.6573C52.3604 50.85 52.8129 49.7551 52.8129 48.6134V11.3048C52.8129 10.1631 52.3604 9.06817 51.5549 8.26086C50.7495 7.45354 49.657 7 48.5179 7V7ZM11.295 9.86989H48.5179C48.8976 9.86989 49.2618 10.0211 49.5303 10.2902C49.7987 10.5593 49.9496 10.9243 49.9496 11.3048V42.5278C49.4912 42.3572 49.0068 42.2674 48.5179 42.2623H11.295C10.8061 42.2677 10.3218 42.3575 9.8633 42.5278V11.3048C9.8633 10.9243 10.0141 10.5593 10.2826 10.2902C10.5511 10.0211 10.9153 9.86989 11.295 9.86989ZM49.9496 48.6134C49.9496 48.9939 49.7987 49.3589 49.5303 49.628C49.2618 49.8971 48.8976 50.0483 48.5179 50.0483H11.295C10.9153 50.0483 10.5511 49.8971 10.2826 49.628C10.0141 49.3589 9.8633 48.9939 9.8633 48.6134V46.5671C9.8633 46.1866 10.0141 45.8216 10.2826 45.5525C10.5511 45.2834 10.9153 45.1322 11.295 45.1322H48.5179C48.8976 45.1322 49.2618 45.2834 49.5303 45.5525C49.7987 45.8216 49.9496 46.1866 49.9496 46.5671V48.6134Z" fill="#FA0101"/>
<path d="M14.9828 24.1906V38.3162C14.9828 38.6968 15.1336 39.0617 15.4021 39.3309C15.6706 39.6 16.0347 39.7511 16.4144 39.7511C16.7941 39.7511 17.1583 39.6 17.4268 39.3309C17.6952 39.0617 17.8461 38.6968 17.8461 38.3162V24.1906C18.7644 23.894 19.5652 23.3131 20.1333 22.5314C20.7013 21.7498 21.0074 20.8076 21.0074 19.8406C21.0074 18.8735 20.7013 17.9314 20.1333 17.1497C19.5652 16.3681 18.7644 15.7871 17.8461 15.4905V14.2809C17.8461 13.9003 17.6952 13.5353 17.4268 13.2662C17.1583 12.9971 16.7941 12.8459 16.4144 12.8459C16.0347 12.8459 15.6706 12.9971 15.4021 13.2662C15.1336 13.5353 14.9828 13.9003 14.9828 14.2809V15.4905C14.0644 15.7871 13.2636 16.3681 12.6956 17.1497C12.1275 17.9314 11.8215 18.8735 11.8215 19.8406C11.8215 20.8076 12.1275 21.7498 12.6956 22.5314C13.2636 23.3131 14.0644 23.894 14.9828 24.1906ZM16.4144 18.1079C16.7565 18.1079 17.0908 18.2095 17.3753 18.4C17.6597 18.5905 17.8813 18.8612 18.0122 19.1779C18.1431 19.4947 18.1774 19.8432 18.1106 20.1795C18.0439 20.5157 17.8792 20.8246 17.6373 21.067C17.3955 21.3094 17.0873 21.4745 16.7518 21.5414C16.4163 21.6083 16.0686 21.574 15.7526 21.4428C15.4366 21.3116 15.1665 21.0894 14.9765 20.8043C14.7864 20.5193 14.685 20.1841 14.685 19.8413C14.6854 19.3817 14.8677 18.941 15.192 18.616C15.5162 18.291 15.9559 18.1083 16.4144 18.1079Z" fill="#FA0101"/>
<path d="M28.4781 36.8655V38.3162C28.4781 38.6968 28.6289 39.0617 28.8974 39.3309C29.1659 39.6 29.53 39.7511 29.9097 39.7511C30.2894 39.7511 30.6536 39.6 30.9221 39.3309C31.1905 39.0617 31.3414 38.6968 31.3414 38.3162V36.8655C32.2597 36.5689 33.0605 35.988 33.6286 35.2063C34.1966 34.4246 34.5027 33.4825 34.5027 32.5154C34.5027 31.5484 34.1966 30.6063 33.6286 29.8246C33.0605 29.0429 32.2597 28.462 31.3414 28.1654V14.2809C31.3414 13.9003 31.1905 13.5353 30.9221 13.2662C30.6536 12.9971 30.2894 12.8459 29.9097 12.8459C29.53 12.8459 29.1659 12.9971 28.8974 13.2662C28.6289 13.5353 28.4781 13.9003 28.4781 14.2809V28.1654C27.5597 28.462 26.7589 29.0429 26.1909 29.8246C25.6228 30.6063 25.3168 31.5484 25.3168 32.5154C25.3168 33.4825 25.6228 34.4246 26.1909 35.2063C26.7589 35.988 27.5597 36.5689 28.4781 36.8655ZM29.9097 30.7827C30.2517 30.783 30.5859 30.8849 30.8702 31.0756C31.1544 31.2662 31.3758 31.537 31.5065 31.8538C31.6372 32.1706 31.6712 32.519 31.6043 32.8552C31.5374 33.1914 31.3726 33.5001 31.1307 33.7424C30.8888 33.9846 30.5806 34.1496 30.2452 34.2164C29.9097 34.2831 29.5621 34.2487 29.2461 34.1175C28.9302 33.9862 28.6602 33.7641 28.4702 33.479C28.2803 33.194 28.1789 32.8589 28.1789 32.5162C28.1792 32.0563 28.3618 31.6154 28.6863 31.2904C29.0109 30.9653 29.4509 30.7827 29.9097 30.7827Z" fill="#FA0101"/>
<path d="M41.9692 31.1415V38.3162C41.9692 38.6968 42.12 39.0617 42.3885 39.3309C42.657 39.6 43.0211 39.7511 43.4008 39.7511C43.7805 39.7511 44.1447 39.6 44.4132 39.3309C44.6816 39.0617 44.8325 38.6968 44.8325 38.3162V31.1415C45.7511 30.8448 46.5523 30.2637 47.1205 29.4818C47.6888 28.6999 47.995 27.7574 47.995 26.79C47.995 25.8226 47.6888 24.8802 47.1205 24.0982C46.5523 23.3163 45.7511 22.7352 44.8325 22.4385V14.2809C44.8325 13.9003 44.6816 13.5353 44.4132 13.2662C44.1447 12.9971 43.7805 12.8459 43.4008 12.8459C43.0211 12.8459 42.657 12.9971 42.3885 13.2662C42.12 13.5353 41.9692 13.9003 41.9692 14.2809V22.4414C41.0508 22.738 40.25 23.3189 39.682 24.1006C39.1139 24.8823 38.8079 25.8244 38.8079 26.7914C38.8079 27.7585 39.1139 28.7006 39.682 29.4823C40.25 30.264 41.0508 30.8449 41.9692 31.1415ZM43.4008 25.0588C43.7428 25.059 44.077 25.1609 44.3613 25.3516C44.6455 25.5422 44.8669 25.813 44.9976 26.1298C45.1283 26.4466 45.1623 26.7951 45.0954 27.1312C45.0285 27.4674 44.8637 27.7761 44.6218 28.0184C44.3799 28.2607 44.0717 28.4256 43.7363 28.4924C43.4008 28.5591 43.0532 28.5247 42.7372 28.3935C42.4213 28.2622 42.1513 28.0401 41.9613 27.755C41.7713 27.47 41.67 27.1349 41.67 26.7922C41.6701 26.5643 41.7151 26.3388 41.8023 26.1284C41.8894 25.918 42.0171 25.7268 42.1779 25.5659C42.3388 25.4049 42.5297 25.2773 42.7398 25.1903C42.9498 25.1033 43.175 25.0586 43.4023 25.0588H43.4008Z" fill="#FA0101"/>
<path d="M18.4429 46.1558H13.2531C12.8734 46.1558 12.5093 46.3069 12.2408 46.576C11.9723 46.8452 11.8215 47.2101 11.8215 47.5907C11.8215 47.9713 11.9723 48.3363 12.2408 48.6054C12.5093 48.8745 12.8734 49.0257 13.2531 49.0257H18.4429C18.8226 49.0257 19.1867 48.8745 19.4552 48.6054C19.7237 48.3363 19.8745 47.9713 19.8745 47.5907C19.8745 47.2101 19.7237 46.8452 19.4552 46.576C19.1867 46.3069 18.8226 46.1558 18.4429 46.1558Z" fill="#FA0101"/>
<path d="M33.0656 46.1558H27.8759C27.4962 46.1558 27.132 46.3069 26.8635 46.576C26.595 46.8452 26.4442 47.2101 26.4442 47.5907C26.4442 47.9713 26.595 48.3363 26.8635 48.6054C27.132 48.8745 27.4962 49.0257 27.8759 49.0257H33.0656C33.4453 49.0257 33.8094 48.8745 34.0779 48.6054C34.3464 48.3363 34.4973 47.9713 34.4973 47.5907C34.4973 47.2101 34.3464 46.8452 34.0779 46.576C33.8094 46.3069 33.4453 46.1558 33.0656 46.1558Z" fill="#FA0101"/>
<path d="M42.504 46.1558H37.3099C36.9302 46.1558 36.5661 46.3069 36.2976 46.576C36.0291 46.8452 35.8783 47.2101 35.8783 47.5907C35.8783 47.9713 36.0291 48.3363 36.2976 48.6054C36.5661 48.8745 36.9302 49.0257 37.3099 49.0257H42.504C42.8837 49.0257 43.2478 48.8745 43.5163 48.6054C43.7848 48.3363 43.9356 47.9713 43.9356 47.5907C43.9356 47.2101 43.7848 46.8452 43.5163 46.576C43.2478 46.3069 42.8837 46.1558 42.504 46.1558Z" fill="#FA0101"/>
<path d="M21.7202 46.5757C21.5218 46.7777 21.3872 47.0339 21.3332 47.3122C21.2792 47.5905 21.3083 47.8785 21.4168 48.1404C21.5252 48.4022 21.7083 48.6262 21.943 48.7843C22.1778 48.9424 22.4538 49.0277 22.7367 49.0295C23.1162 49.0266 23.4801 48.8776 23.7531 48.6133C24.0199 48.3417 24.1691 47.9757 24.1683 47.5945C24.1714 47.4054 24.1362 47.2176 24.0649 47.0425C23.9935 46.8674 23.8875 46.7086 23.7531 46.5757C23.4763 46.3197 23.1134 46.1775 22.7367 46.1775C22.36 46.1775 21.9971 46.3197 21.7202 46.5757Z" fill="#FA0101"/>
<path d="M45.5436 46.5757C45.2777 46.8479 45.1287 47.2136 45.1284 47.5945C45.1265 47.7835 45.1622 47.9709 45.2335 48.1459C45.3048 48.3209 45.4102 48.4798 45.5435 48.6135C45.6768 48.7471 45.8354 48.8527 46.01 48.9241C46.1845 48.9956 46.3715 49.0314 46.5601 49.0295C46.8444 49.0311 47.1229 48.9479 47.3598 48.7903C47.5968 48.6327 47.7816 48.408 47.8906 48.1448C47.9997 47.8816 48.028 47.5917 47.9721 47.3123C47.9162 47.0328 47.7785 46.7764 47.5766 46.5757C47.2997 46.3197 46.9368 46.1775 46.5601 46.1775C46.1834 46.1775 45.8205 46.3197 45.5436 46.5757Z" fill="#FA0101"/>
</svg>
