<svg width="25" height="23" viewBox="0 0 25 23" fill="none" xmlns="http://www.w3.org/2000/svg">
<path d="M1.5228 0.832181C1.23395 0.832181 1 1.06632 1 1.35498C1 1.64383 1.23414 1.87778 1.5228 1.87778H4.30865C5.64495 5.18205 6.95609 8.49276 8.27909 11.8035L7.05366 14.7445C6.91944 15.0611 7.1917 15.4721 7.53561 15.4716H20.6068C20.8831 15.4756 21.1371 15.225 21.1371 14.9488C21.1371 14.6725 20.8831 14.422 20.6068 14.426H8.31989L9.2021 12.3019L21.9549 11.2807C22.173 11.2627 22.37 11.0932 22.4207 10.8804L23.9893 4.0834C24.0573 3.77996 23.7938 3.44842 23.4827 3.44628H6.05738L5.1423 1.15881C5.06517 0.967888 4.86621 0.833124 4.66034 0.832031L1.5228 0.832181ZM6.47353 4.49203H22.8289L21.4891 10.276L9.18585 11.2564L6.47353 4.49203ZM10.1498 17.0404C8.85655 17.0404 7.79708 18.1001 7.79708 19.3931C7.79708 20.6864 8.85674 21.7459 10.1498 21.7459C11.4431 21.7459 12.5025 20.6862 12.5025 19.3931C12.5025 18.0999 11.4429 17.0404 10.1498 17.0404ZM17.9925 17.0404C16.6993 17.0404 15.6398 18.1001 15.6398 19.3931C15.6398 20.6864 16.6995 21.7459 17.9925 21.7459C19.2858 21.7459 20.3453 20.6862 20.3453 19.3931C20.3453 18.0999 19.2856 17.0404 17.9925 17.0404ZM10.1498 18.086C10.878 18.086 11.4569 18.665 11.4569 19.3931C11.4569 20.1213 10.878 20.7002 10.1498 20.7002C9.42165 20.7002 8.84269 20.1213 8.84269 19.3931C8.84269 18.665 9.42165 18.086 10.1498 18.086ZM17.9925 18.086C18.7207 18.086 19.2997 18.665 19.2997 19.3931C19.2997 20.1213 18.7207 20.7002 17.9925 20.7002C17.2644 20.7002 16.6854 20.1213 16.6854 19.3931C16.6854 18.665 17.2644 18.086 17.9925 18.086Z" fill="#DD0000" stroke="#DD0000" stroke-width="0.2"/>
</svg>
