<svg width="23" height="23" viewBox="0 0 23 23" fill="none" xmlns="http://www.w3.org/2000/svg">
<path d="M11.699 2.40186C6.57041 2.40186 2.3999 6.57236 2.3999 11.7009C2.3999 16.8295 6.57041 21 11.699 21C16.8275 21 20.998 16.8295 20.998 11.7009C20.998 6.57236 16.8275 2.40186 11.699 2.40186V2.40186ZM11.699 3.61485C16.172 3.61485 19.7851 7.22799 19.7851 11.701C19.7851 16.174 16.172 19.7871 11.699 19.7871C7.22596 19.7871 3.61282 16.174 3.61282 11.701C3.61282 7.22799 7.22596 3.61485 11.699 3.61485V3.61485ZM11.699 5.02989C11.3641 5.02989 11.0925 5.30148 11.0925 5.63639V11.701C11.0925 12.0359 11.3641 12.3075 11.699 12.3075H17.3593C17.6942 12.3075 17.9658 12.0361 17.9658 11.701C17.9658 11.3661 17.6942 11.0945 17.3593 11.0945H12.3054V5.63635C12.3054 5.30145 12.034 5.02985 11.6989 5.02985L11.699 5.02989Z" fill="#DD0000"/>
</svg>
