<svg width="15" height="20" viewBox="0 0 15 20" fill="none" xmlns="http://www.w3.org/2000/svg">
<path d="M8.51557 0.0260359C8.10597 -0.00867864 7.67998 -0.00867864 7.26975 0.0260359C4.95898 0.221223 2.97336 1.56789 1.8227 3.71953C0.626039 5.95895 0.580038 8.64572 1.72755 10.9572L6.80659 19.3751C7.04227 19.7668 7.44935 20 7.89361 20C8.33786 20 8.74494 19.7668 8.98125 19.3751L14.0597 10.9572C14.0691 10.9421 14.0773 10.9251 14.0855 10.9094C15.2065 8.64638 15.1612 5.95895 13.9645 3.71953C12.8126 1.56789 10.827 0.221223 8.51557 0.0260359ZM12.9764 10.2845L7.87407 18.6789L2.8215 10.3094C1.89391 8.43744 1.93298 6.21177 2.92421 4.35618C3.86692 2.5936 5.48768 1.49125 7.37247 1.33274C7.54387 1.31768 7.71779 1.30982 7.89298 1.30982C8.06816 1.30982 8.24208 1.31768 8.41348 1.33209C10.2976 1.4906 11.919 2.59295 12.8617 4.35553C13.8486 6.20326 13.8914 8.41713 12.9764 10.2845Z" fill="#FF0000"/>
<path d="M7.89301 3.64014C6.1122 3.64014 4.66284 5.14662 4.66284 6.99762C4.66284 8.84863 6.1122 10.3551 7.89301 10.3551C9.67383 10.3551 11.1232 8.84863 11.1232 6.99762C11.1232 5.14662 9.67383 3.64014 7.89301 3.64014ZM7.89301 9.04513C6.80663 9.04513 5.92315 8.12683 5.92315 6.99762C5.92315 5.86842 6.80663 4.95012 7.89301 4.95012C8.9794 4.95012 9.86287 5.86842 9.86287 6.99762C9.86287 8.12683 8.9794 9.04513 7.89301 9.04513Z" fill="#FF0000"/>
</svg>
