<svg width="56" height="48" viewBox="0 0 56 48" fill="none" xmlns="http://www.w3.org/2000/svg">
<path d="M0 0H56V48H0V0Z" fill="#FF0000"/>
<path d="M32.3787 27.1636C32.1691 26.954 31.9188 26.815 31.6779 26.7652C31.4385 26.7156 31.1884 26.7521 31.0151 26.9254C30.8418 27.0987 30.8054 27.3488 30.8549 27.5882C30.9048 27.8291 31.0437 28.0793 31.2533 28.2889L37.3762 34.4118C37.5858 34.6214 37.836 34.7604 38.0769 34.8102C38.3163 34.8597 38.5664 34.8233 38.7397 34.65C38.9131 34.4767 38.9495 34.2266 38.8999 33.9872C38.8501 33.7463 38.7111 33.496 38.5015 33.2864L32.3787 27.1636Z" fill="white" stroke="white" stroke-width="0.3" stroke-linecap="round" stroke-linejoin="round"/>
<path d="M23.7532 13.6774C20.7767 14.475 18.4519 16.7998 17.6544 19.7762C16.8568 22.7527 17.7078 25.9285 19.8867 28.1073C22.0656 30.2862 25.2414 31.1372 28.2178 30.3397C31.1942 29.5421 33.5191 27.2173 34.3166 24.2409C35.1141 21.2644 34.2632 18.0886 32.0843 15.9097C29.9054 13.7308 26.7296 12.8799 23.7532 13.6774ZM19.1916 20.1881C19.842 17.7609 21.7379 15.8651 24.1651 15.2147C26.5923 14.5643 29.1821 15.2583 30.9589 17.0351C32.7358 18.8119 33.4297 21.4017 32.7793 23.829C32.129 26.2562 30.2331 28.152 27.8059 28.8024C25.3787 29.4528 22.7889 28.7588 21.012 26.982C19.2352 25.2052 18.5413 22.6153 19.1916 20.1881Z" fill="white" stroke="white" stroke-width="0.3" stroke-linecap="round" stroke-linejoin="round"/>
</svg>
