<svg width="32" height="32" viewBox="0 0 32 32" fill="none" xmlns="http://www.w3.org/2000/svg">
<circle cx="16" cy="16" r="16" fill="#52B7D7"/>
<path d="M22.686 8.16649L6.7005 14.215C6.7005 14.215 5.94473 14.4648 6.00323 14.9254C6.0633 15.3869 6.68003 15.598 6.68003 15.598L10.7023 16.9034C10.7023 16.9034 11.9164 20.7432 12.1554 21.4739C12.3943 22.2025 12.586 22.2197 12.586 22.2197C12.8085 22.3129 13.0108 22.1644 13.0108 22.1644L15.6096 19.8798L19.6598 22.8748C20.7553 23.3357 21.154 22.3755 21.154 22.3755L24 8.53202C24 7.60991 22.686 8.16649 22.686 8.16649ZM19.856 21.2622L15.5229 18.0589L14.1783 19.2406L14.474 16.7265L20.2497 11.75L12.3768 15.9993L8.88457 14.8661L22.2083 9.82437L19.856 21.2622Z" fill="white"/>
</svg>
