<svg width="32" height="32" viewBox="0 0 32 32" fill="none" xmlns="http://www.w3.org/2000/svg">
<circle cx="16" cy="16" r="16" fill="#33B06C"/>
<path d="M18.3912 8.26391C18.6259 8.33588 18.8606 8.40786 19.0952 8.50383C19.3299 8.59979 19.5646 8.69576 19.7758 8.81572C19.987 8.91169 20.2217 9.03165 20.4094 9.1756C20.6441 9.31955 20.8318 9.4635 21.043 9.60745C21.2308 9.7514 21.4185 9.91934 21.6063 10.1113C21.794 10.2792 21.9583 10.4472 22.1226 10.6391C22.2868 10.831 22.4276 11.047 22.5919 11.2389C22.7327 11.4548 22.8735 11.6707 22.9909 11.8867C23.1082 12.1026 23.2255 12.3185 23.3194 12.5584C23.4368 12.7984 23.5306 13.0383 23.601 13.2782C23.6714 13.5181 23.7418 13.758 23.8122 13.9979C23.8592 14.2619 23.9061 14.5018 23.9296 14.7417C23.9765 15.0056 24 15.2695 24 15.5094C24 15.7733 24 16.0133 23.9765 16.2532C23.9765 16.5171 23.9296 16.757 23.9061 17.0209C23.8592 17.2848 23.8122 17.5247 23.7418 17.7647C23.6714 18.0046 23.601 18.2445 23.5072 18.4844C23.4368 18.7243 23.3194 18.9642 23.2255 19.1802C23.1082 19.3961 22.9909 19.636 22.8501 19.8519C22.7327 20.0679 22.5919 20.2598 22.4276 20.4757C22.2868 20.6677 22.1226 20.8596 21.9583 21.0515C21.794 21.2435 21.6063 21.4114 21.4185 21.5793C21.2308 21.7473 21.043 21.9152 20.8318 22.0592C20.6206 22.2031 20.4094 22.3471 20.2217 22.467L20.1043 22.539C19.9166 22.635 19.7289 22.7309 19.5411 22.8269C19.3064 22.9229 19.0718 23.0188 18.8606 23.0908C18.6259 23.1868 18.3912 23.2348 18.1331 23.3068C17.8984 23.3547 17.6637 23.4027 17.4056 23.4507H17.3586H17.3352C17.1239 23.4747 16.8893 23.4987 16.6546 23.4987C16.4199 23.4987 16.1618 23.4987 15.9271 23.4987C15.6924 23.4747 15.4343 23.4507 15.1761 23.4027C14.9414 23.3547 14.6833 23.3068 14.4486 23.2348C14.3078 23.2108 14.167 23.1628 14.0027 23.0908C13.8619 23.0428 13.6977 22.9949 13.5569 22.9229C13.3926 22.8749 13.2518 22.8029 13.111 22.7309C12.9702 22.659 12.8294 22.587 12.6885 22.491C12.5477 22.4191 12.4304 22.3471 12.3365 22.2751C12.2192 22.2031 12.1253 22.1551 12.0315 22.0832L11.9845 22.0352C11.8906 21.9632 11.7733 21.8912 11.6794 21.7953C11.609 21.7473 11.5386 21.6993 11.4682 21.6273L7.80726 21.7953H7.52565L7.15017 21.8193H6.89202L6.37573 21.8433L6.63388 21.3874L6.75122 21.1475L6.91549 20.8596L6.93896 20.8356L7.07976 20.5717L8.98065 17.2128C8.95718 17.1169 8.93371 17.0209 8.93371 16.9489L8.91024 16.757L8.88678 16.637V16.5651C8.86331 16.4211 8.86331 16.2772 8.83984 16.1572L8.86331 16.1332C8.83984 16.0133 8.83984 15.8693 8.83984 15.7254C8.83984 15.5574 8.83984 15.3895 8.86331 15.2215C8.86331 15.0776 8.88678 14.9096 8.91024 14.7417C8.93371 14.5737 8.95718 14.4058 8.98065 14.2379C9.02758 14.0699 9.05105 13.902 9.09799 13.758C9.16839 13.5181 9.23879 13.2782 9.33266 13.0383C9.42653 12.7744 9.52041 12.5584 9.61428 12.3425C9.73161 12.1026 9.84895 11.8867 9.98976 11.6707C10.1071 11.4548 10.2479 11.2389 10.4122 11.047C10.553 10.831 10.7173 10.6391 10.8815 10.4712C11.0693 10.2792 11.2335 10.1113 11.4213 9.94333C11.609 9.77539 11.7968 9.60745 12.008 9.4635C12.2192 9.29556 12.4304 9.1756 12.6416 9.05564C12.8528 8.91169 13.064 8.81572 13.2987 8.69576C13.5099 8.59979 13.7446 8.50383 13.9793 8.43185C14.2139 8.33588 14.4486 8.26391 14.7068 8.21593C14.9414 8.14395 15.1996 8.09597 15.4343 8.07198C15.6689 8.04798 15.9271 8.02399 16.1852 8.02399V8C16.4199 8 16.6781 8 16.9127 8.02399C17.1709 8.04798 17.4056 8.07198 17.6637 8.11996C17.8984 8.14395 18.1565 8.21593 18.3912 8.26391ZM11.5152 19.9959H11.7968H11.8906H11.9376L12.0549 19.9719L12.1488 20.0679L12.1957 20.1158L12.2661 20.1638C12.36 20.2598 12.4539 20.3558 12.5477 20.4277C12.6416 20.5237 12.7355 20.5957 12.8294 20.6677C12.9232 20.7396 13.0406 20.8116 13.1579 20.8836C13.2518 20.9795 13.3691 21.0275 13.463 21.0995C13.5803 21.1475 13.6977 21.2195 13.815 21.2674C13.8854 21.3154 13.9793 21.3634 14.0497 21.3874H14.0731L14.1435 21.4354C14.2609 21.4834 14.4017 21.5314 14.4956 21.5554C14.6129 21.6033 14.7302 21.6273 14.871 21.6753C15.0588 21.7233 15.27 21.7713 15.4577 21.7953C15.6455 21.8433 15.8332 21.8672 16.0444 21.8672C16.2322 21.8912 16.4199 21.8912 16.6311 21.8912C16.8189 21.8672 17.0066 21.8672 17.1943 21.8433C17.4056 21.8193 17.5933 21.7713 17.781 21.7233C17.9688 21.6753 18.1565 21.6273 18.3443 21.5554C18.532 21.5074 18.7197 21.4354 18.884 21.3394C19.0718 21.2674 19.236 21.1715 19.4238 21.0755C19.5881 20.9556 19.7523 20.8596 19.9166 20.7396C20.0809 20.6197 20.2217 20.4997 20.386 20.3558C20.5268 20.2358 20.6676 20.0919 20.8084 19.9479C20.9257 19.804 21.0665 19.66 21.1839 19.4921C21.3012 19.3241 21.4185 19.1562 21.5124 18.9882C21.6063 18.8203 21.7001 18.6523 21.794 18.4604C21.8879 18.2925 21.9583 18.1005 22.0287 17.9086C22.0991 17.7407 22.146 17.5487 22.2164 17.3328C22.2634 17.1409 22.3103 16.9489 22.3338 16.757C22.3572 16.5651 22.3807 16.3491 22.4042 16.1572C22.4276 15.9653 22.4276 15.7493 22.4042 15.5574C22.4042 15.3655 22.4042 15.1975 22.3807 15.0056L22.3572 14.9576C22.3338 14.7657 22.3103 14.5737 22.2634 14.3578C22.2164 14.1659 22.1695 13.974 22.0991 13.782C22.0287 13.5901 21.9583 13.4221 21.8879 13.2302C21.8175 13.0623 21.7236 12.8703 21.6063 12.7024C21.4185 12.3425 21.1839 12.0066 20.9257 11.7187C20.691 11.4308 20.4094 11.1669 20.1278 10.927L20.0809 10.903C19.9166 10.783 19.7523 10.6631 19.5881 10.5431C19.4238 10.4472 19.2595 10.3512 19.0718 10.2552C18.9075 10.1833 18.7197 10.0873 18.532 10.0153C18.3677 9.96733 18.18 9.89535 17.9688 9.84737C17.781 9.77539 17.5698 9.7514 17.4056 9.70342C17.1943 9.67942 17.0066 9.65543 16.8189 9.63144C16.6077 9.63144 16.4199 9.63144 16.2322 9.63144C16.021 9.63144 15.8332 9.65543 15.6455 9.67942C15.4343 9.70342 15.2465 9.7514 15.0588 9.77539C14.871 9.82337 14.6833 9.89535 14.4956 9.94333C14.3078 10.0153 14.1201 10.0873 13.9558 10.1833C13.7681 10.2552 13.6038 10.3512 13.416 10.4472C13.2518 10.5431 13.0875 10.6631 12.9232 10.783C12.7589 10.903 12.6181 11.023 12.4539 11.1429C12.3131 11.2869 12.1723 11.4308 12.0549 11.5748C11.9141 11.7187 11.7733 11.8627 11.656 12.0306L11.609 12.1026C11.5152 12.2226 11.4213 12.3665 11.3274 12.5105C11.2335 12.6784 11.1397 12.8703 11.0458 13.0383C10.9519 13.2302 10.8815 13.4221 10.8111 13.5901C10.7407 13.782 10.6938 13.974 10.6234 14.1659C10.5999 14.3098 10.5765 14.4298 10.553 14.5498C10.5295 14.6697 10.506 14.7897 10.4826 14.9336C10.4591 15.0776 10.4591 15.1975 10.4356 15.3175C10.4356 15.4374 10.4356 15.5814 10.4356 15.7014C10.4122 15.8213 10.4356 15.9653 10.4356 16.0852C10.4356 16.2052 10.4591 16.3491 10.4591 16.4691C10.4826 16.5891 10.506 16.709 10.5295 16.853C10.553 16.9729 10.5765 17.0929 10.5999 17.2128L10.6234 17.2848V17.3088V17.3568L10.6469 17.4767L10.5999 17.5727L10.5765 17.6207L10.553 17.6687L10.5295 17.6927L10.3183 18.1005L10.1306 18.4124L9.87242 18.8923L9.16839 20.1158L11.3744 20.0199L11.4917 19.9959H11.5152Z" fill="white"/>
<path fill-rule="evenodd" clip-rule="evenodd" d="M14.0496 11.0467C12.7824 11.5985 12.3834 12.7741 12.6181 14.0937C12.7589 14.8854 13.0405 15.6771 13.5333 16.6368C14.0262 17.5965 14.6598 18.5082 15.3403 19.2279C17.1708 21.1473 20.1278 20.8114 19.1421 19.132C18.6493 18.3402 18.3677 17.6925 18.3677 17.6925C18.3677 17.6925 18.1565 17.2366 17.7341 17.5005C17.2882 17.7884 16.8657 18.1003 16.6545 18.0523C16.326 18.0043 13.7445 14.6215 14.7302 14.0937C15.1761 13.8778 15.9505 13.6138 15.622 13.062C15.3873 12.6542 14.5424 11.1907 14.5424 11.1907C14.5424 11.1907 14.3782 10.8788 14.0496 11.0467Z" fill="white"/>
</svg>
