<svg width="40" height="40" viewBox="0 0 40 40" fill="none" xmlns="http://www.w3.org/2000/svg">
<g clip-path="url(#clip0_160_1543)">
<path d="M39.9988 30.2872V36.3771C40.001 36.9424 39.8863 37.502 39.6619 38.02C39.4375 38.538 39.1084 39.003 38.6957 39.3852C38.2829 39.7674 37.7957 40.0584 37.265 40.2395C36.7345 40.4206 36.1722 40.4879 35.6144 40.437C29.4256 39.7583 23.4809 37.6238 18.2578 34.205C13.3984 31.0883 9.27853 26.93 6.19067 22.0253C2.79172 16.7295 0.676483 10.7001 0.0163242 4.42551C-0.0339344 3.86416 0.0321622 3.29839 0.210405 2.76424C0.388647 2.23008 0.675131 1.73924 1.05162 1.32296C1.4281 0.906681 1.88634 0.574085 2.39715 0.34635C2.90797 0.118614 3.46016 0.000727602 4.01859 0.000196809H10.0522C11.0282 -0.00949918 11.9744 0.33936 12.7145 0.981749C13.4545 1.62414 13.9379 2.51622 14.0745 3.49173C14.3292 5.44062 14.8015 7.35419 15.4824 9.19591C15.753 9.92249 15.8115 10.7121 15.6511 11.4713C15.4907 12.2304 15.1181 12.9272 14.5773 13.4791L12.0231 16.0572C14.8862 21.1393 19.0552 25.3472 24.0903 28.2369L26.6445 25.6589C27.1913 25.1131 27.8817 24.737 28.6338 24.5751C29.3859 24.4132 30.1682 24.4723 30.8881 24.7454C32.7128 25.4326 34.6086 25.9093 36.5395 26.1664C37.5165 26.3055 38.4087 26.8022 39.0465 27.562C39.6843 28.3218 40.0232 29.2917 39.9988 30.2872Z" fill="#424242"/>
</g>
<defs>
<clipPath id="clip0_160_1543">
<rect width="40" height="40" fill="white"/>
</clipPath>
</defs>
</svg>
