<svg width="40" height="40" viewBox="0 0 40 40" fill="none" xmlns="http://www.w3.org/2000/svg">
<path fill-rule="evenodd" clip-rule="evenodd" d="M20.1707 40C20.1707 40 36.3413 29.0909 36.3413 16.3636C36.3413 12.0237 34.6377 7.86158 31.6051 4.7928C28.5725 1.72402 24.4594 0 20.1707 0C15.8819 0 11.7689 1.72402 8.73628 4.7928C5.70369 7.86158 4 12.0237 4 16.3636C4 29.0909 20.1707 40 20.1707 40ZM25.5612 16.3638C25.5612 19.3763 23.1479 21.8183 20.171 21.8183C17.1941 21.8183 14.7808 19.3763 14.7808 16.3638C14.7808 13.3513 17.1941 10.9092 20.171 10.9092C23.1479 10.9092 25.5612 13.3513 25.5612 16.3638Z" fill="#424242"/>
</svg>
