<svg width="601" height="315" viewBox="0 0 601 315" fill="none" xmlns="http://www.w3.org/2000/svg">
<g clip-path="url(#clip0_160_1560)">
<path d="M556.526 122.775L508.663 98.8143L419.714 143.342L389.136 128.034L342.811 28.7261L400.266 0L517.93 58.9685L541.97 46.9341L577.177 64.5645L553.076 76.5989L601 100.511L556.526 122.775ZM473.444 81.184L428.97 58.9083C416.95 52.8911 405.182 46.3926 393.138 39.4246L391.936 40.0504C398.427 49.7863 404.906 58.2946 410.784 68.0424L427.768 103.448L428.381 103.76L473.444 81.184Z" fill="#616161"/>
<path d="M553.137 76.5508V121.078L556.526 122.787L601 100.511L553.137 76.5508Z" fill="#BDBDBD"/>
<path d="M517.918 58.9203V103.46L508.662 98.8143L473.444 116.385V81.184L432.684 62.1817L400.014 43.2395L400.254 0L517.918 58.9203Z" fill="#757575"/>
<path d="M473.444 81.1841V116.385L427.984 139.154L428.357 103.761L473.444 81.1841Z" fill="#BDBDBD"/>
<path d="M542.018 46.8618V115.518L553.136 121.078V76.5506L577.224 64.4802L542.018 46.8618Z" fill="#616161"/>
<path d="M391.912 40.0505V129.43L419.714 143.354L427.9 139.25L428.357 103.761L410.76 68.0425L391.912 40.0505Z" fill="#9E9E9E"/>
<path d="M213.716 294.421L165.876 270.461L76.928 314.988L46.3491 299.68L0 200.409L57.4436 171.646L175.119 230.555L199.159 218.52L234.39 236.127L210.35 248.161L258.214 272.134L213.716 294.421ZM130.645 252.83L86.1714 230.555C74.1514 224.538 62.3838 218.039 50.3398 211.071L49.1378 211.697C55.6286 221.433 62.1194 229.941 67.9851 239.689L84.9694 275.094L85.5824 275.407L130.645 252.83Z" fill="#616161"/>
<path d="M348.989 125.254C411.072 156.339 428.669 190.24 377.404 215.873C325.514 241.855 256.002 229.941 198.895 201.648C140.826 172.573 119.563 137.156 171.405 111.186C225.147 84.2767 294.009 97.7312 348.989 125.254ZM246.146 177.952C291.822 201.143 324.901 206.558 343.123 197.436C361.345 188.314 348.376 171.935 302.664 149.07C258.19 126.794 225.147 119.838 206.299 129.273C189.003 137.938 199.195 154.786 246.146 177.952Z" fill="url(#paint0_linear_160_1560)"/>
<path d="M210.326 248.197V292.724L213.716 294.433L258.19 272.158L210.326 248.197Z" fill="#BDBDBD"/>
<path d="M175.119 230.567V275.094L165.852 270.461L130.645 288.031V252.83L89.8735 233.828L57.2031 214.886L57.4435 171.646L175.119 230.567Z" fill="#757575"/>
<path d="M130.645 252.83V288.031L85.1738 310.8L85.5464 275.407L130.645 252.83Z" fill="#BDBDBD"/>
<path d="M199.207 218.496V287.165L210.326 292.724V248.197L234.414 236.127L199.207 218.496Z" fill="#616161"/>
<path d="M49.1016 211.697V301.076L76.9038 315L85.0894 310.896L85.5462 275.407L67.9489 239.689L49.1016 211.697Z" fill="#9E9E9E"/>
<path d="M343.123 197.472C324.9 206.594 291.857 201.179 246.145 177.989C213.475 161.838 198.618 148.769 198.426 139.394L199.111 201.744C246.999 225.416 303.517 237.559 351.08 225.56V185.173L350.659 185.041C352.102 190.071 349.577 194.235 343.123 197.472Z" fill="#9E9E9E"/>
</g>
<defs>
<linearGradient id="paint0_linear_160_1560" x1="141.932" y1="163.403" x2="407.43" y2="163.403" gradientUnits="userSpaceOnUse">
<stop stop-color="#757575"/>
<stop offset="1" stop-color="#616161"/>
</linearGradient>
<clipPath id="clip0_160_1560">
<rect width="601" height="315" fill="white"/>
</clipPath>
</defs>
</svg>
